<?xml version="1.0" encoding="utf-8"?>
<!-- Generator: Adobe Illustrator 16.0.3, SVG Export Plug-In . SVG Version: 6.00 Build 0)  -->
<!DOCTYPE svg PUBLIC "-//W3C//DTD SVG 1.1//EN" "http://www.w3.org/Graphics/SVG/1.1/DTD/svg11.dtd">
<svg version="1.1" xmlns="http://www.w3.org/2000/svg" xmlns:xlink="http://www.w3.org/1999/xlink" x="0px" y="0px" width="2324px"
	 height="564px" viewBox="0 0 2324 564" enable-background="new 0 0 2324 564" xml:space="preserve">
<g id="fondo" display="none">
	<rect display="inline" fill="#4D4D4D" width="1439" height="564"/>
</g>
<g id="Version_1" display="none">
	<g id="OverexStudio_copia" display="inline">
		<rect x="12.96" y="494.485" fill="none" width="677.166" height="230.218"/>
		<text transform="matrix(1.0588 0 0 1 153.2778 550.4854)"><tspan x="0" y="0" fill="#333333" font-family="'FONTSPRINGDEMO-NovecentosansBookBold'" font-size="100">OVEREX</tspan><tspan x="25.684" y="35" fill="#4D4D4D" font-family="'FONTSPRINGDEMO-NovecentosansBookRegular'" font-size="30" letter-spacing="44.388">STUDIO</tspan></text>
	</g>
	<g id="Elipse" display="inline" enable-background="new    ">
		<g id="Elipse_1">
			<g>
				<ellipse fill-rule="evenodd" clip-rule="evenodd" fill="#3F3F3F" cx="351.543" cy="242.138" rx="236.22" ry="229.846"/>
			</g>
		</g>
	</g>
	<g id="Equis" display="inline">
		<polygon fill="#CCCCCC" points="251.543,319.551 391.539,149.145 451.543,143.022 311.314,314.531 		"/>
		<polygon fill="#EFEFEF" points="256.284,162.251 316.242,162.251 446.803,333.216 387.076,333.216 		"/>
	</g>
</g>
<g id="Version_1.1" display="none">
	<g id="OverexStudio_copia_2" display="inline">
		<rect x="8.773" y="494.485" fill="none" width="677.166" height="230.218"/>
		<text transform="matrix(1.0588 0 0 1 149.0908 550.4854)"><tspan x="0" y="0" fill="#333333" font-family="'FONTSPRINGDEMO-NovecentosansBookBold'" font-size="100">OVEREX</tspan><tspan x="25.684" y="35" fill="#4D4D4D" font-family="'FONTSPRINGDEMO-NovecentosansBookRegular'" font-size="30" letter-spacing="44.388">STUDIO</tspan></text>
	</g>
	<g id="Elipse_copia_2" display="inline" enable-background="new    ">
		<g id="Elipse_1_4_">
			<g>
				<path fill-rule="evenodd" clip-rule="evenodd" fill="#3F3F3F" d="M347.356,93.813c-106.859,0-193.5,84.299-193.5,188.295
					c0,103.995,86.641,188.294,193.5,188.294c106.849,0,193.5-84.299,193.5-188.294C540.856,178.112,454.205,93.813,347.356,93.813z
					"/>
			</g>
		</g>
	</g>
	<g id="Equis_copia_2" display="inline">
		<polygon fill="#CCCCCC" points="265.45,345.506 380.104,205.927 429.263,200.932 314.399,341.401 		"/>
		<polygon fill="#EFEFEF" points="269.315,216.656 318.435,216.656 425.397,356.714 376.454,356.714 		"/>
	</g>
</g>
<g id="Version_2" display="none">
	<g id="OverexStudio" display="inline">
		<rect x="12.96" y="494.485" fill="none" width="677.166" height="230.218"/>
		<text transform="matrix(1.0588 0 0 1 19.5503 550.4854)"><tspan x="0" y="0" fill="#333333" font-family="'FONTSPRINGDEMO-NovecentosansBookBold'" font-size="100">Overex</tspan><tspan x="337.297" y="0" fill="#4D4D4D" font-family="'FONTSPRINGDEMO-NovecentosansBookRegular'" font-size="100">Studio</tspan></text>
	</g>
	<g id="Elipse_copia" display="inline" enable-background="new    ">
		<g id="Elipse_1_1_">
			<g>
				<ellipse fill-rule="evenodd" clip-rule="evenodd" fill="#3F3F3F" cx="351.543" cy="242.138" rx="236.22" ry="229.846"/>
			</g>
		</g>
	</g>
	<g id="Equis_copia" display="inline">
		<polygon fill="#CCCCCC" points="251.543,319.551 391.539,149.145 451.543,143.022 311.314,314.531 		"/>
		<polygon fill="#EFEFEF" points="256.284,162.251 316.242,162.251 446.803,333.216 387.076,333.216 		"/>
	</g>
</g>
<g id="Version_3" display="none">
	<g id="OverexStudio_copia_3" display="inline">
		<rect x="598.5" y="210.871" fill="none" width="1681" height="142.258"/>
		<text transform="matrix(1.0588 0 0 1 609.0166 350.8701)"><tspan x="0" y="0" fill="#333333" font-family="'FONTSPRINGDEMO-NovecentosansBookBold'" font-size="250">Overex</tspan><tspan x="843.244" y="0" fill="#4D4D4D" font-family="'FONTSPRINGDEMO-NovecentosansBookRegular'" font-size="250">Studio</tspan></text>
	</g>
	<g id="Elipse_copia_3" display="inline" enable-background="new    ">
		<g id="Elipse_1_6_">
			<g>
				<ellipse fill-rule="evenodd" clip-rule="evenodd" fill="#3F3F3F" cx="351.543" cy="242.138" rx="236.22" ry="229.846"/>
			</g>
		</g>
	</g>
	<g id="Equis_copia_3" display="inline">
		<polygon fill="#CCCCCC" points="251.543,319.551 391.539,149.145 451.543,143.022 311.314,314.531 		"/>
		<polygon fill="#EFEFEF" points="256.284,162.251 316.242,162.251 446.803,333.216 387.076,333.216 		"/>
	</g>
</g>
<g id="Version_4">
	<g id="OverexStudio_copia_5">
		<rect x="589.961" y="166.891" fill="none" width="1040.039" height="230.218"/>
		<text transform="matrix(1.0588 0 0 1 614.3174 306.8901)"><tspan x="0" y="0" fill="#333333" font-family="'FONTSPRINGDEMO-NovecentosansBookBold'" font-size="250">OVEREX</tspan><tspan x="64.21" y="86" fill="#4D4D4D" font-family="'FONTSPRINGDEMO-NovecentosansBookRegular'" font-size="75" letter-spacing="112.387">STUDIO</tspan></text>
	</g>
	<g id="Elipse_copia_4" enable-background="new    ">
		<g id="Elipse_1_8_">
			<g>
				<ellipse fill-rule="evenodd" clip-rule="evenodd" fill="#3F3F3F" cx="351.543" cy="242.138" rx="236.22" ry="229.846"/>
			</g>
		</g>
	</g>
	<g id="Equis_copia_4">
		<polygon fill="#CCCCCC" points="251.543,319.551 391.539,149.145 451.543,143.022 311.314,314.531 		"/>
		<polygon fill="#EFEFEF" points="256.284,162.251 316.242,162.251 446.803,333.216 387.076,333.216 		"/>
	</g>
</g>
</svg>
